<svg xmlns="http://www.w3.org/2000/svg" viewBox="0 0 1000 1100" font-family="-apple-system,BlinkMacSystemFont,'Segoe UI',sans-serif">
  <defs>
    <marker id="arr" viewBox="0 0 10 7" refX="10" refY="3.5" markerWidth="7" markerHeight="5" orient="auto-start-auto">
      <polygon points="0 0, 10 3.5, 0 7" fill="#9ca3af"/>
    </marker>
    <marker id="arrR" viewBox="0 0 10 7" refX="10" refY="3.5" markerWidth="7" markerHeight="5" orient="auto-start-auto">
      <polygon points="0 0, 10 3.5, 0 7" fill="#dc2626"/>
    </marker>
  </defs>
  <style>
    .L{font-size:10px;fill:#6b7280;font-weight:600;letter-spacing:1px}
    .t{font-size:11px;fill:#fff;text-anchor:middle}
    .s{font-size:9px;fill:#93c5fd;text-anchor:middle}
    .dt{font-size:10px;fill:#374151;text-anchor:middle;font-weight:600}
    .ds{font-size:9px;fill:#6b7280;text-anchor:middle}
    .e{stroke:#9ca3af;stroke-width:1.1;fill:none;marker-end:url(#arr)}
    .cf{stroke:#dc2626;stroke-width:1.1;stroke-dasharray:6 4;fill:none;marker-end:url(#arrR)}
  </style>

  <!-- ══ L0: TYPES y=50 ══ -->
  <text x="15" y="38" class="L">L0: TYPES</text>
  <line x1="15" y1="43" x2="985" y2="43" stroke="#e5e7eb" stroke-width=".5"/>
  <rect x="55" y="52" width="150" height="42" rx="6" fill="#1a3a5c" stroke="#4a8abf"/>
  <text x="130" y="70" class="t" font-weight="bold">ConceptClass</text>
  <text x="130" y="84" class="s">22 edges</text>
  <rect x="240" y="52" width="120" height="42" rx="6" fill="#374151" stroke="#6b7280"/>
  <text x="300" y="77" class="t">BatchLearner</text>
  <rect x="390" y="52" width="130" height="42" rx="6" fill="#374151" stroke="#6b7280"/>
  <text x="455" y="77" class="t">OnlineLearner</text>
  <rect x="555" y="52" width="115" height="42" rx="6" fill="#374151" stroke="#6b7280"/>
  <text x="613" y="77" class="t">GoldLearner</text>
  <rect x="710" y="52" width="110" height="42" rx="6" fill="#4a8abf" stroke="#2563eb"/>
  <text x="765" y="77" class="t">Measure.pi</text>

  <!-- ══ L1: MEASURES y=165 ══ -->
  <text x="15" y="153" class="L">L1: MEASURES</text>
  <line x1="15" y1="158" x2="985" y2="158" stroke="#e5e7eb" stroke-width=".5"/>
  <rect x="35" y="167" width="140" height="40" rx="5" fill="#1a3a5c" stroke="#4a8abf"/>
  <text x="105" y="191" class="t">VCDim &lt; ∞</text>
  <rect x="205" y="167" width="160" height="40" rx="5" fill="#1a3a5c" stroke="#4a8abf"/>
  <text x="285" y="191" class="t">LittlestoneDim &lt; ∞</text>
  <rect x="395" y="167" width="130" height="40" rx="5" fill="#1a3a5c" stroke="#4a8abf"/>
  <text x="460" y="191" class="t">GrowthFunction</text>
  <rect x="555" y="167" width="140" height="40" rx="5" fill="#1a3a5c" stroke="#4a8abf"/>
  <text x="625" y="191" class="t">Rademacher → 0</text>
  <rect x="725" y="167" width="160" height="40" rx="5" fill="#1a3a5c" stroke="#4a8abf"/>
  <text x="805" y="191" class="t">MindChangeOrd.</text>

  <!-- L0→L1 -->
  <line x1="130" y1="94" x2="105" y2="167" class="e"/>
  <line x1="130" y1="94" x2="285" y2="167" class="e"/>
  <line x1="130" y1="94" x2="460" y2="167" class="e"/>
  <line x1="130" y1="94" x2="805" y2="167" class="e"/>

  <!-- ══ L2: INFRASTRUCTURE y=290 ══ -->
  <text x="15" y="278" class="L">L2: INFRASTRUCTURE</text>
  <line x1="15" y1="283" x2="985" y2="283" stroke="#e5e7eb" stroke-width=".5"/>
  <rect x="25" y="292" width="110" height="40" rx="5" fill="#4a8abf" stroke="#2563eb"/>
  <text x="80" y="316" class="t">Sauer-Shelah</text>
  <rect x="155" y="292" width="120" height="40" rx="5" fill="#1a3a5c" stroke="#4a8abf"/>
  <text x="215" y="316" class="t">Uniform Conv.</text>
  <rect x="295" y="292" width="140" height="48" rx="5" fill="#1a3a5c" stroke="#4a8abf"/>
  <text x="365" y="312" class="t">Symmetrization</text>
  <text x="365" y="328" class="s">3,027 lines</text>
  <rect x="455" y="292" width="100" height="40" rx="5" fill="#374151" stroke="#6b7280"/>
  <text x="505" y="316" class="t">Hoeffding</text>
  <rect x="575" y="292" width="95" height="40" rx="5" fill="#374151" stroke="#6b7280"/>
  <text x="623" y="316" class="t">NFL core</text>
  <rect x="690" y="292" width="120" height="40" rx="5" fill="#2563eb" stroke="#1d4ed8"/>
  <text x="750" y="316" class="t">WellBehavedVC</text>
  <rect x="830" y="292" width="120" height="40" rx="5" fill="#374151" stroke="#6b7280"/>
  <text x="890" y="312" class="t">boost_2/3</text>
  <text x="890" y="326" class="s">_to_pac</text>

  <!-- Row 2b -->
  <rect x="65" y="355" width="130" height="40" rx="5" fill="#4a8abf" stroke="#2563eb"/>
  <text x="130" y="379" class="t">Bridge: Bool bij.</text>
  <rect x="225" y="355" width="145" height="40" rx="5" fill="#1a3a5c" stroke="#4a8abf"/>
  <text x="298" y="379" class="t">CompressionScheme</text>

  <!-- L1→L2 -->
  <line x1="105" y1="207" x2="80" y2="292" class="e"/>
  <line x1="105" y1="207" x2="215" y2="292" class="e"/>
  <line x1="105" y1="207" x2="625" y2="167" class="e"/>
  <line x1="105" y1="207" x2="298" y2="355" class="e"/>
  <line x1="460" y1="207" x2="365" y2="292" class="e"/>
  <line x1="765" y1="94" x2="623" y2="292" class="e"/>
  <line x1="765" y1="94" x2="215" y2="292" class="e"/>
  <line x1="750" y1="332" x2="365" y2="292" class="e"/>
  <line x1="215" y1="332" x2="365" y2="292" class="e"/>
  <line x1="365" y1="340" x2="505" y2="292" class="e"/>
  <line x1="130" y1="355" x2="80" y2="332" class="e"/>

  <!-- ══ L3: THEOREMS y=470 ══ -->
  <text x="15" y="458" class="L">L3: THEOREMS</text>
  <line x1="15" y1="463" x2="985" y2="463" stroke="#e5e7eb" stroke-width=".5"/>
  <rect x="25" y="472" width="200" height="46" rx="7" fill="#2563eb" stroke="#1d4ed8" stroke-width="2"/>
  <text x="125" y="492" class="t" font-size="12" font-weight="bold">FUNDAMENTAL THM</text>
  <text x="125" y="508" class="s">(5-way equiv.)</text>
  <rect x="255" y="472" width="150" height="40" rx="5" fill="#1a3a5c" stroke="#4a8abf"/>
  <text x="330" y="496" class="t">vc_characterization</text>
  <rect x="435" y="472" width="155" height="40" rx="5" fill="#1a3a5c" stroke="#4a8abf"/>
  <text x="513" y="496" class="t">littlestone_charact.</text>
  <rect x="620" y="472" width="120" height="40" rx="5" fill="#1a3a5c" stroke="#4a8abf"/>
  <text x="680" y="496" class="t">gold_theorem</text>
  <rect x="770" y="472" width="125" height="40" rx="5" fill="#1a3a5c" stroke="#4a8abf"/>
  <text x="833" y="496" class="t">online_imp_pac</text>

  <!-- Row 3b -->
  <rect x="60" y="540" width="155" height="40" rx="5" fill="#1a3a5c" stroke="#4a8abf"/>
  <text x="138" y="564" class="t">pac_not_imp_online</text>
  <rect x="245" y="540" width="140" height="40" rx="5" fill="#1a3a5c" stroke="#4a8abf"/>
  <text x="315" y="564" class="t">ex_not_imp_pac</text>
  <rect x="415" y="540" width="155" height="40" rx="5" fill="#1a3a5c" stroke="#4a8abf"/>
  <text x="493" y="564" class="t">nfl_theorem_inf.</text>
  <rect x="610" y="540" width="170" height="44" rx="5" fill="#dc2626" stroke="#991b1b" stroke-width="2"/>
  <text x="695" y="558" class="t">universal_trichotomy</text>
  <text x="695" y="573" style="font-size:8px;fill:#fca5a5;text-anchor:middle">(2/3 proved)</text>

  <!-- L2→L3 / L0→L3 -->
  <line x1="298" y1="395" x2="125" y2="472" class="e"/>
  <line x1="625" y1="207" x2="125" y2="472" class="e"/>
  <line x1="460" y1="207" x2="125" y2="472" class="e"/>
  <line x1="300" y1="94" x2="330" y2="472" class="e"/>
  <line x1="455" y1="94" x2="513" y2="472" class="e"/>
  <line x1="613" y1="94" x2="680" y2="472" class="e"/>
  <line x1="285" y1="207" x2="513" y2="472" class="e"/>
  <line x1="805" y1="207" x2="680" y2="472" class="e"/>
  <line x1="513" y1="512" x2="833" y2="472" class="e"/>
  <line x1="623" y1="332" x2="493" y2="540" class="e"/>
  <line x1="330" y1="512" x2="493" y2="540" class="e"/>
  <line x1="105" y1="207" x2="138" y2="540" class="e"/>
  <line x1="285" y1="207" x2="138" y2="540" class="e"/>
  <line x1="890" y1="332" x2="695" y2="540" class="e"/>
  <line x1="513" y1="512" x2="695" y2="540" class="e"/>
  <line x1="330" y1="512" x2="695" y2="540" class="e"/>

  <!-- ══ L4: SORRY y=650 ══ -->
  <text x="15" y="638" class="L">L4: SORRY</text>
  <line x1="15" y1="643" x2="985" y2="643" stroke="#e5e7eb" stroke-width=".5"/>
  <rect x="130" y="655" width="250" height="46" rx="6" fill="#dc2626" stroke="#991b1b" stroke-width="2"/>
  <text x="255" y="675" class="t">vcdim_finite_imp_compression</text>
  <text x="255" y="691" style="font-size:9px;fill:#fca5a5;text-anchor:middle">Moran-Yehudayoff 2016</text>
  <rect x="470" y="655" width="220" height="46" rx="6" fill="#dc2626" stroke="#991b1b" stroke-width="2"/>
  <text x="580" y="675" class="t">bhmz_middle_branch</text>
  <text x="580" y="691" style="font-size:9px;fill:#fca5a5;text-anchor:middle">BHMZ STOC 2021</text>

  <line x1="255" y1="701" x2="298" y2="395" class="e"/>
  <line x1="580" y1="701" x2="695" y2="584" class="e"/>

  <!-- ══ L5: DEAD y=780 ══ -->
  <text x="15" y="768" class="L">L5: DEAD BRANCHES</text>
  <line x1="15" y1="773" x2="985" y2="773" stroke="#e5e7eb" stroke-width=".5"/>

  <rect x="25" y="785" width="115" height="48" rx="5" fill="#f3f4f6" stroke="#9ca3af" stroke-dasharray="4 3"/>
  <text x="83" y="803" class="dt">✗ DEAD</text>
  <text x="83" y="820" class="ds">NFL finite X</text>
  <line x1="83" y1="785" x2="493" y2="580" class="cf"/>

  <rect x="155" y="785" width="120" height="48" rx="5" fill="#f3f4f6" stroke="#9ca3af" stroke-dasharray="4 3"/>
  <text x="215" y="803" class="dt">✗ DEAD</text>
  <text x="215" y="820" class="ds">BranchWise LDim</text>
  <line x1="215" y1="785" x2="513" y2="512" class="cf"/>

  <rect x="290" y="785" width="120" height="48" rx="5" fill="#f3f4f6" stroke="#9ca3af" stroke-dasharray="4 3"/>
  <text x="350" y="803" class="dt">✗ DEAD</text>
  <text x="350" y="820" class="ds">Direct union bnd</text>
  <line x1="350" y1="785" x2="215" y2="332" class="cf"/>

  <rect x="425" y="785" width="130" height="48" rx="5" fill="#f3f4f6" stroke="#9ca3af" stroke-dasharray="4 3"/>
  <text x="490" y="803" class="dt">✗ DEAD</text>
  <text x="490" y="820" class="ds">UC w/o regularity</text>
  <line x1="490" y1="785" x2="365" y2="340" class="cf"/>

  <rect x="570" y="785" width="120" height="48" rx="5" fill="#f3f4f6" stroke="#9ca3af" stroke-dasharray="4 3"/>
  <text x="630" y="803" class="dt">✗ DEAD</text>
  <text x="630" y="820" class="ds">PAC exist. Dm</text>
  <line x1="630" y1="785" x2="330" y2="512" class="cf"/>

  <rect x="705" y="785" width="125" height="48" rx="5" fill="#f3f4f6" stroke="#9ca3af" stroke-dasharray="4 3"/>
  <text x="768" y="803" class="dt">✗ DEAD</text>
  <text x="768" y="820" class="ds">UC D-dep. m₀</text>
  <line x1="768" y1="785" x2="215" y2="332" class="cf"/>

  <rect x="845" y="785" width="120" height="48" rx="5" fill="#f3f4f6" stroke="#9ca3af" stroke-dasharray="4 3"/>
  <text x="905" y="803" class="dt">✗ DEAD</text>
  <text x="905" y="820" class="ds">Bridge |Y| > 2</text>
  <line x1="905" y1="785" x2="130" y2="395" class="cf"/>

  <!-- ══ LEGEND y=870 ══ -->
  <line x1="15" y1="860" x2="985" y2="860" stroke="#d1d5db" stroke-width=".5"/>
  <rect x="30" y="875" width="14" height="14" rx="3" fill="#1a3a5c" stroke="#4a8abf"/>
  <text x="50" y="887" style="font-size:10px;fill:#374151">Proved</text>
  <rect x="120" y="875" width="14" height="14" rx="3" fill="#2563eb" stroke="#1d4ed8"/>
  <text x="140" y="887" style="font-size:10px;fill:#374151">Key result</text>
  <rect x="230" y="875" width="14" height="14" rx="3" fill="#4a8abf" stroke="#2563eb"/>
  <text x="250" y="887" style="font-size:10px;fill:#374151">Mathlib bridge</text>
  <rect x="370" y="875" width="14" height="14" rx="3" fill="#374151" stroke="#6b7280"/>
  <text x="390" y="887" style="font-size:10px;fill:#374151">Utility</text>
  <rect x="460" y="875" width="14" height="14" rx="3" fill="#dc2626" stroke="#991b1b"/>
  <text x="480" y="887" style="font-size:10px;fill:#374151">Sorry</text>
  <rect x="540" y="875" width="14" height="14" rx="3" fill="#f3f4f6" stroke="#9ca3af" stroke-dasharray="3 2"/>
  <text x="560" y="887" style="font-size:10px;fill:#374151">Dead branch</text>
  <line x1="660" y1="882" x2="695" y2="882" stroke="#9ca3af" stroke-width="1.1"/>
  <text x="702" y="887" style="font-size:10px;fill:#374151">Factual</text>
  <line x1="770" y1="882" x2="805" y2="882" stroke="#dc2626" stroke-width="1.1" stroke-dasharray="6 4"/>
  <text x="812" y="887" style="font-size:10px;fill:#374151">Counterfactual</text>
</svg>