<svg xmlns="http://www.w3.org/2000/svg" width="1100" height="780" viewBox="0 0 1100 780">
  <defs>
    <marker id="arrowGrey" markerWidth="7" markerHeight="5" refX="7" refY="2.5" orient="auto">
      <polygon points="0 0, 7 2.5, 0 5" fill="#9ca3af"/>
    </marker>
    <marker id="arrowRed" markerWidth="7" markerHeight="5" refX="7" refY="2.5" orient="auto">
      <polygon points="0 0, 7 2.5, 0 5" fill="#dc2626"/>
    </marker>
    <style>
      text { font-family: -apple-system, BlinkMacSystemFont, 'Segoe UI', sans-serif; }
      .layer-label { font-size: 9px; fill: #9ca3af; font-weight: bold; letter-spacing: 0.5px; }
      .node-text { font-size: 11px; }
      .node-text-sm { font-size: 9px; }
      .edge-label { font-size: 9px; fill: #6b7280; }
      .dead-text { font-size: 10px; fill: #374151; }
    </style>
  </defs>

  <rect width="1100" height="780" fill="#ffffff"/>

  <!-- Layer labels (left margin) -->
  <text x="8" y="50" class="layer-label">L0: TYPES</text>
  <text x="8" y="170" class="layer-label">L1: MEASURES</text>
  <text x="8" y="310" class="layer-label">L2: INFRA</text>
  <text x="8" y="450" class="layer-label">L3: THEOREMS</text>
  <text x="8" y="560" class="layer-label">L4: SORRY</text>
  <text x="8" y="680" class="layer-label">L5: DEAD</text>

  <!-- ============ LAYER 0: Types and Data (y=50) ============ -->
  <!-- ConceptClass (large) -->
  <rect x="80" y="30" width="140" height="40" rx="6" fill="#1a3a5c"/>
  <text x="150" y="48" class="node-text" fill="white" text-anchor="middle" font-weight="bold">ConceptClass</text>
  <text x="150" y="62" class="node-text-sm" fill="#93c5fd" text-anchor="middle">22 edges</text>

  <!-- BatchLearner -->
  <rect x="270" y="35" width="120" height="32" rx="6" fill="#374151"/>
  <text x="330" y="56" class="node-text" fill="white" text-anchor="middle">BatchLearner</text>

  <!-- OnlineLearner -->
  <rect x="430" y="35" width="120" height="32" rx="6" fill="#374151"/>
  <text x="490" y="56" class="node-text" fill="white" text-anchor="middle">OnlineLearner</text>

  <!-- GoldLearner -->
  <rect x="590" y="35" width="110" height="32" rx="6" fill="#374151"/>
  <text x="645" y="56" class="node-text" fill="white" text-anchor="middle">GoldLearner</text>

  <!-- Measure.pi -->
  <rect x="740" y="35" width="100" height="32" rx="6" fill="#4a8abf"/>
  <text x="790" y="56" class="node-text" fill="white" text-anchor="middle">Measure.pi</text>

  <!-- ============ LAYER 1: Complexity Measures (y=155) ============ -->
  <!-- VCDim -->
  <rect x="60" y="145" width="130" height="32" rx="6" fill="#1a3a5c"/>
  <text x="125" y="166" class="node-text" fill="white" text-anchor="middle">VCDim(C) &lt; inf</text>

  <!-- LittlestoneDim -->
  <rect x="220" y="145" width="150" height="32" rx="6" fill="#1a3a5c"/>
  <text x="295" y="166" class="node-text" fill="white" text-anchor="middle">LittlestoneDim(C) &lt; inf</text>

  <!-- GrowthFunction -->
  <rect x="400" y="145" width="130" height="32" rx="6" fill="#1a3a5c"/>
  <text x="465" y="166" class="node-text" fill="white" text-anchor="middle">GrowthFunction</text>

  <!-- Rademacher -->
  <rect x="560" y="145" width="130" height="32" rx="6" fill="#1a3a5c"/>
  <text x="625" y="166" class="node-text" fill="white" text-anchor="middle">Rademacher -> 0</text>

  <!-- MindChangeOrdinal -->
  <rect x="720" y="145" width="150" height="32" rx="6" fill="#1a3a5c"/>
  <text x="795" y="166" class="node-text" fill="white" text-anchor="middle">MindChangeOrdinal</text>

  <!-- ============ LAYER 2: Infrastructure (y=290) ============ -->
  <!-- Sauer-Shelah -->
  <rect x="25" y="285" width="110" height="32" rx="6" fill="#4a8abf"/>
  <text x="80" y="306" class="node-text" fill="white" text-anchor="middle">Sauer-Shelah</text>

  <!-- Uniform Convergence -->
  <rect x="155" y="285" width="150" height="32" rx="6" fill="#1a3a5c"/>
  <text x="230" y="306" class="node-text" fill="white" text-anchor="middle">Uniform Conv.</text>

  <!-- Symmetrization -->
  <rect x="325" y="285" width="145" height="32" rx="6" fill="#1a3a5c"/>
  <text x="397" y="300" class="node-text" fill="white" text-anchor="middle">Symmetrization</text>
  <text x="397" y="312" class="node-text-sm" fill="#93c5fd" text-anchor="middle">2,959 lines</text>

  <!-- Hoeffding -->
  <rect x="490" y="285" width="105" height="32" rx="6" fill="#374151"/>
  <text x="542" y="300" class="node-text" fill="white" text-anchor="middle">Hoeffding</text>
  <text x="542" y="312" class="node-text-sm" fill="#9ca3af" text-anchor="middle">300 lines</text>

  <!-- NFL core -->
  <rect x="615" y="285" width="100" height="32" rx="6" fill="#374151"/>
  <text x="665" y="300" class="node-text" fill="white" text-anchor="middle">NFL core</text>
  <text x="665" y="312" class="node-text-sm" fill="#9ca3af" text-anchor="middle">200 lines</text>

  <!-- WellBehavedVC -->
  <rect x="735" y="285" width="115" height="32" rx="6" fill="#2563eb"/>
  <text x="792" y="306" class="node-text" fill="white" text-anchor="middle">WellBehavedVC</text>

  <!-- Bridge -->
  <rect x="105" y="335" width="130" height="32" rx="6" fill="#4a8abf"/>
  <text x="170" y="356" class="node-text" fill="white" text-anchor="middle">Bridge: Bool bij.</text>

  <!-- CompressionScheme -->
  <rect x="265" y="335" width="140" height="32" rx="6" fill="#1a3a5c"/>
  <text x="335" y="356" class="node-text" fill="white" text-anchor="middle">CompressionScheme</text>

  <!-- boost_two_thirds_to_pac -->
  <rect x="870" y="285" width="120" height="32" rx="6" fill="#374151"/>
  <text x="930" y="300" class="node-text" fill="white" text-anchor="middle" font-size="10">boost_two_thirds</text>
  <text x="930" y="312" class="node-text-sm" fill="#9ca3af" text-anchor="middle">_to_pac</text>

  <!-- ============ LAYER 3: Theorems (y=435) ============ -->
  <!-- FUNDAMENTAL THEOREM (large, bold) -->
  <rect x="70" y="425" width="195" height="40" rx="6" fill="#2563eb" stroke="#1a3a5c" stroke-width="2"/>
  <text x="167" y="450" fill="white" text-anchor="middle" font-size="13" font-weight="bold">FUNDAMENTAL THEOREM</text>

  <!-- vc_characterization -->
  <rect x="290" y="430" width="145" height="32" rx="6" fill="#1a3a5c"/>
  <text x="362" y="450" class="node-text" fill="white" text-anchor="middle" font-size="10">vc_characterization</text>

  <!-- littlestone_characterization -->
  <rect x="455" y="430" width="160" height="32" rx="6" fill="#1a3a5c"/>
  <text x="535" y="450" class="node-text" fill="white" text-anchor="middle" font-size="10">littlestone_charact.</text>

  <!-- gold_theorem -->
  <rect x="635" y="430" width="110" height="32" rx="6" fill="#1a3a5c"/>
  <text x="690" y="450" class="node-text" fill="white" text-anchor="middle">gold_theorem</text>

  <!-- online_imp_pac -->
  <rect x="765" y="430" width="115" height="32" rx="6" fill="#1a3a5c"/>
  <text x="822" y="450" class="node-text" fill="white" text-anchor="middle" font-size="10">online_imp_pac</text>

  <!-- pac_not_implies_online -->
  <rect x="300" y="480" width="160" height="32" rx="6" fill="#1a3a5c"/>
  <text x="380" y="500" class="node-text" fill="white" text-anchor="middle" font-size="10">pac_not_imp_online</text>

  <!-- ex_not_implies_pac -->
  <rect x="490" y="480" width="145" height="32" rx="6" fill="#1a3a5c"/>
  <text x="562" y="500" class="node-text" fill="white" text-anchor="middle" font-size="10">ex_not_imp_pac</text>

  <!-- nfl_theorem_infinite -->
  <rect x="665" y="480" width="145" height="32" rx="6" fill="#1a3a5c"/>
  <text x="737" y="500" class="node-text" fill="white" text-anchor="middle" font-size="10">nfl_theorem_infinite</text>

  <!-- universal_trichotomy -->
  <rect x="890" y="430" width="150" height="32" rx="6" fill="#dc2626" stroke="#6b7280" stroke-width="1" stroke-dasharray="3,2"/>
  <text x="965" y="450" class="node-text" fill="white" text-anchor="middle" font-size="10">universal_trichotomy</text>

  <!-- ============ LAYER 4: Sorry nodes (y=555) ============ -->
  <rect x="220" y="545" width="195" height="32" rx="6" fill="#dc2626"/>
  <text x="317" y="565" class="node-text" fill="white" text-anchor="middle" font-size="10">vcdim_finite_imp_compression</text>

  <rect x="460" y="545" width="155" height="32" rx="6" fill="#dc2626"/>
  <text x="537" y="565" class="node-text" fill="white" text-anchor="middle" font-size="10">bhmz_middle_branch</text>

  <!-- ============ LAYER 5: Counterfactual dead branches (y=660) ============ -->
  <!-- Dead 1: NFL for finite X -->
  <rect x="25" y="640" width="140" height="36" rx="6" fill="#d1d5db" stroke="#6b7280" stroke-width="1" stroke-dasharray="4,2"/>
  <text x="95" y="655" class="dead-text" text-anchor="middle" font-size="9" font-weight="bold">DEAD</text>
  <text x="95" y="668" class="dead-text" text-anchor="middle" font-size="9">NFL for finite X</text>

  <!-- Dead 2: BranchWise LDim -->
  <rect x="185" y="640" width="140" height="36" rx="6" fill="#d1d5db" stroke="#6b7280" stroke-width="1" stroke-dasharray="4,2"/>
  <text x="255" y="655" class="dead-text" text-anchor="middle" font-size="9" font-weight="bold">DEAD</text>
  <text x="255" y="668" class="dead-text" text-anchor="middle" font-size="9">BranchWise LDim</text>

  <!-- Dead 3: Direct union bound -->
  <rect x="345" y="640" width="140" height="36" rx="6" fill="#d1d5db" stroke="#6b7280" stroke-width="1" stroke-dasharray="4,2"/>
  <text x="415" y="655" class="dead-text" text-anchor="middle" font-size="9" font-weight="bold">DEAD</text>
  <text x="415" y="668" class="dead-text" text-anchor="middle" font-size="9">Direct union bound</text>

  <!-- Dead 4: UC without regularity -->
  <rect x="505" y="640" width="145" height="36" rx="6" fill="#d1d5db" stroke="#6b7280" stroke-width="1" stroke-dasharray="4,2"/>
  <text x="577" y="655" class="dead-text" text-anchor="middle" font-size="9" font-weight="bold">DEAD</text>
  <text x="577" y="668" class="dead-text" text-anchor="middle" font-size="9">UC without regularity</text>

  <!-- Dead 5: PAC with existential Dm -->
  <rect x="670" y="640" width="150" height="36" rx="6" fill="#d1d5db" stroke="#6b7280" stroke-width="1" stroke-dasharray="4,2"/>
  <text x="745" y="655" class="dead-text" text-anchor="middle" font-size="9" font-weight="bold">DEAD</text>
  <text x="745" y="668" class="dead-text" text-anchor="middle" font-size="9">PAC w/ exist. Dm</text>

  <!-- Dead 6: UC with D-dependent m0 -->
  <rect x="505" y="700" width="155" height="36" rx="6" fill="#d1d5db" stroke="#6b7280" stroke-width="1" stroke-dasharray="4,2"/>
  <text x="582" y="715" class="dead-text" text-anchor="middle" font-size="9" font-weight="bold">DEAD</text>
  <text x="582" y="728" class="dead-text" text-anchor="middle" font-size="9">UC w/ D-dep. m0</text>

  <!-- Dead 7: Bridge for |Y| > 2 -->
  <rect x="840" y="640" width="140" height="36" rx="6" fill="#d1d5db" stroke="#6b7280" stroke-width="1" stroke-dasharray="4,2"/>
  <text x="910" y="655" class="dead-text" text-anchor="middle" font-size="9" font-weight="bold">DEAD</text>
  <text x="910" y="668" class="dead-text" text-anchor="middle" font-size="9">Bridge for |Y| &gt; 2</text>

  <!-- ============ FACTUAL EDGES (grey, solid) ============ -->
  <!-- ConceptClass -> VCDim, LittlestoneDim, GrowthFunction, MindChangeOrdinal -->
  <line x1="125" y1="70" x2="125" y2="145" stroke="#9ca3af" stroke-width="1.2" marker-end="url(#arrowGrey)"/>
  <line x1="155" y1="70" x2="295" y2="145" stroke="#9ca3af" stroke-width="1.2" marker-end="url(#arrowGrey)"/>
  <line x1="170" y1="70" x2="465" y2="145" stroke="#9ca3af" stroke-width="1.2" marker-end="url(#arrowGrey)"/>
  <line x1="190" y1="70" x2="795" y2="145" stroke="#9ca3af" stroke-width="1.2" marker-end="url(#arrowGrey)"/>

  <!-- BatchLearner -> vc_characterization -->
  <line x1="330" y1="67" x2="362" y2="430" stroke="#9ca3af" stroke-width="1.2" marker-end="url(#arrowGrey)"/>

  <!-- OnlineLearner -> littlestone_characterization -->
  <line x1="490" y1="67" x2="535" y2="430" stroke="#9ca3af" stroke-width="1.2" marker-end="url(#arrowGrey)"/>

  <!-- GoldLearner -> gold_theorem -->
  <line x1="645" y1="67" x2="690" y2="430" stroke="#9ca3af" stroke-width="1.2" marker-end="url(#arrowGrey)"/>

  <!-- Measure.pi -> NFL core -->
  <line x1="790" y1="67" x2="665" y2="285" stroke="#9ca3af" stroke-width="1.2" marker-end="url(#arrowGrey)"/>
  <!-- Measure.pi -> Uniform Convergence -->
  <line x1="770" y1="67" x2="250" y2="285" stroke="#9ca3af" stroke-width="1.2" marker-end="url(#arrowGrey)"/>

  <!-- VCDim -> Sauer-Shelah -->
  <line x1="100" y1="177" x2="80" y2="285" stroke="#9ca3af" stroke-width="1.2" marker-end="url(#arrowGrey)"/>
  <!-- VCDim -> Uniform Convergence -->
  <line x1="130" y1="177" x2="220" y2="285" stroke="#9ca3af" stroke-width="1.2" marker-end="url(#arrowGrey)"/>
  <!-- VCDim -> Rademacher -->
  <line x1="160" y1="177" x2="610" y2="145" stroke="#9ca3af" stroke-width="1.2" marker-end="url(#arrowGrey)"/>
  <!-- VCDim -> CompressionScheme -->
  <line x1="140" y1="177" x2="310" y2="335" stroke="#9ca3af" stroke-width="1.2" marker-end="url(#arrowGrey)"/>

  <!-- LittlestoneDim -> littlestone_characterization -->
  <line x1="295" y1="177" x2="535" y2="430" stroke="#9ca3af" stroke-width="1.2" marker-end="url(#arrowGrey)"/>

  <!-- MindChangeOrdinal -> gold_theorem -->
  <line x1="795" y1="177" x2="690" y2="430" stroke="#9ca3af" stroke-width="1.2" marker-end="url(#arrowGrey)"/>

  <!-- Sauer-Shelah -> GrowthFunction (upward conceptual, but we draw down from GF perspective: Bridge -> SS) -->
  <!-- Bridge -> Sauer-Shelah -->
  <line x1="140" y1="335" x2="90" y2="317" stroke="#9ca3af" stroke-width="1.2" marker-end="url(#arrowGrey)"/>

  <!-- WellBehavedVC -> Symmetrization -->
  <line x1="755" y1="301" x2="470" y2="301" stroke="#9ca3af" stroke-width="1.2" marker-end="url(#arrowGrey)"/>

  <!-- Uniform Convergence -> Symmetrization -->
  <line x1="305" y1="301" x2="325" y2="301" stroke="#9ca3af" stroke-width="1.2" marker-end="url(#arrowGrey)"/>

  <!-- Symmetrization -> Hoeffding -->
  <line x1="470" y1="301" x2="490" y2="301" stroke="#9ca3af" stroke-width="1.2" marker-end="url(#arrowGrey)"/>
  <!-- Symmetrization -> GrowthFunction (back up to L1) -->
  <line x1="397" y1="285" x2="465" y2="177" stroke="#9ca3af" stroke-width="1.2" marker-end="url(#arrowGrey)"/>

  <!-- vc_characterization -> FUNDAMENTAL THEOREM -->
  <line x1="310" y1="446" x2="265" y2="445" stroke="#9ca3af" stroke-width="1.5" marker-end="url(#arrowGrey)"/>
  <!-- CompressionScheme -> FUNDAMENTAL THEOREM -->
  <line x1="335" y1="367" x2="167" y2="425" stroke="#9ca3af" stroke-width="1.2" marker-end="url(#arrowGrey)"/>
  <!-- Rademacher -> FUNDAMENTAL THEOREM -->
  <line x1="580" y1="177" x2="200" y2="425" stroke="#9ca3af" stroke-width="1.2" marker-end="url(#arrowGrey)"/>
  <!-- GrowthFunction -> FUNDAMENTAL THEOREM -->
  <line x1="430" y1="177" x2="180" y2="425" stroke="#9ca3af" stroke-width="1.2" marker-end="url(#arrowGrey)"/>

  <!-- NFL core -> nfl_theorem_infinite -->
  <line x1="665" y1="317" x2="737" y2="480" stroke="#9ca3af" stroke-width="1.2" marker-end="url(#arrowGrey)"/>
  <!-- vc_characterization -> nfl_theorem_infinite -->
  <line x1="400" y1="462" x2="685" y2="490" stroke="#9ca3af" stroke-width="1.2" marker-end="url(#arrowGrey)"/>

  <!-- littlestone_characterization -> online_imp_pac -->
  <line x1="615" y1="450" x2="765" y2="446" stroke="#9ca3af" stroke-width="1.2" marker-end="url(#arrowGrey)"/>

  <!-- VCDim -> pac_not_implies_online -->
  <line x1="125" y1="177" x2="340" y2="480" stroke="#9ca3af" stroke-width="1.2" marker-end="url(#arrowGrey)"/>
  <!-- LittlestoneDim -> pac_not_implies_online -->
  <line x1="295" y1="177" x2="380" y2="480" stroke="#9ca3af" stroke-width="1.2" marker-end="url(#arrowGrey)"/>

  <!-- boost -> universal_trichotomy -->
  <line x1="930" y1="317" x2="965" y2="430" stroke="#9ca3af" stroke-width="1.2" marker-end="url(#arrowGrey)"/>
  <!-- littlestone_characterization -> universal_trichotomy -->
  <line x1="615" y1="450" x2="890" y2="446" stroke="#9ca3af" stroke-width="1.2" marker-end="url(#arrowGrey)"/>
  <!-- vc_characterization -> universal_trichotomy -->
  <line x1="435" y1="446" x2="890" y2="446" stroke="#9ca3af" stroke-width="1.2" marker-end="url(#arrowGrey)"/>

  <!-- bhmz_middle_branch -> universal_trichotomy -->
  <line x1="575" y1="545" x2="940" y2="462" stroke="#9ca3af" stroke-width="1.2" marker-end="url(#arrowGrey)"/>

  <!-- vcdim_finite_imp_compression -> CompressionScheme -->
  <line x1="317" y1="545" x2="335" y2="367" stroke="#9ca3af" stroke-width="1.2" marker-end="url(#arrowGrey)"/>

  <!-- ============ COUNTERFACTUAL EDGES (red, dashed) ============ -->
  <!-- Dead 1 -> nfl_theorem_infinite -->
  <line x1="95" y1="640" x2="710" y2="512" stroke="#dc2626" stroke-width="1.2" stroke-dasharray="5,3" marker-end="url(#arrowRed)"/>
  <text x="360" y="580" fill="#dc2626" font-size="11" font-family="-apple-system, BlinkMacSystemFont, 'Segoe UI', sans-serif" font-weight="bold" text-anchor="middle">&#x2717;</text>

  <!-- Dead 2 -> littlestone_characterization -->
  <line x1="255" y1="640" x2="535" y2="462" stroke="#dc2626" stroke-width="1.2" stroke-dasharray="5,3" marker-end="url(#arrowRed)"/>
  <text x="395" y="555" fill="#dc2626" font-size="11" font-family="-apple-system, BlinkMacSystemFont, 'Segoe UI', sans-serif" font-weight="bold" text-anchor="middle">&#x2717;</text>

  <!-- Dead 3 -> Uniform Convergence -->
  <line x1="415" y1="640" x2="240" y2="317" stroke="#dc2626" stroke-width="1.2" stroke-dasharray="5,3" marker-end="url(#arrowRed)"/>
  <text x="330" y="480" fill="#dc2626" font-size="11" font-family="-apple-system, BlinkMacSystemFont, 'Segoe UI', sans-serif" font-weight="bold" text-anchor="middle">&#x2717;</text>

  <!-- Dead 4 -> Symmetrization -->
  <line x1="577" y1="640" x2="397" y2="317" stroke="#dc2626" stroke-width="1.2" stroke-dasharray="5,3" marker-end="url(#arrowRed)"/>
  <text x="490" y="480" fill="#dc2626" font-size="11" font-family="-apple-system, BlinkMacSystemFont, 'Segoe UI', sans-serif" font-weight="bold" text-anchor="middle">&#x2717;</text>

  <!-- Dead 5 -> vc_characterization -->
  <line x1="745" y1="640" x2="362" y2="462" stroke="#dc2626" stroke-width="1.2" stroke-dasharray="5,3" marker-end="url(#arrowRed)"/>
  <text x="555" y="555" fill="#dc2626" font-size="11" font-family="-apple-system, BlinkMacSystemFont, 'Segoe UI', sans-serif" font-weight="bold" text-anchor="middle">&#x2717;</text>

  <!-- Dead 6 -> Uniform Convergence -->
  <line x1="530" y1="700" x2="240" y2="317" stroke="#dc2626" stroke-width="1.2" stroke-dasharray="5,3" marker-end="url(#arrowRed)"/>
  <text x="375" y="515" fill="#dc2626" font-size="11" font-family="-apple-system, BlinkMacSystemFont, 'Segoe UI', sans-serif" font-weight="bold" text-anchor="middle">&#x2717;</text>

  <!-- Dead 7 -> Bridge -->
  <line x1="870" y1="658" x2="210" y2="367" stroke="#dc2626" stroke-width="1.2" stroke-dasharray="5,3" marker-end="url(#arrowRed)"/>
  <text x="540" y="515" fill="#dc2626" font-size="11" font-family="-apple-system, BlinkMacSystemFont, 'Segoe UI', sans-serif" font-weight="bold" text-anchor="middle">&#x2717;</text>

  <!-- ============ LEGEND ============ -->
  <rect x="25" y="748" width="1050" height="26" rx="4" fill="#f9fafb" stroke="#d1d5db" stroke-width="0.5"/>
  <rect x="35" y="754" width="12" height="12" rx="2" fill="#1a3a5c"/>
  <text x="52" y="764" font-size="9" fill="#374151" font-family="-apple-system, BlinkMacSystemFont, 'Segoe UI', sans-serif">Core type</text>
  <rect x="120" y="754" width="12" height="12" rx="2" fill="#2563eb"/>
  <text x="137" y="764" font-size="9" fill="#374151" font-family="-apple-system, BlinkMacSystemFont, 'Segoe UI', sans-serif">Key result</text>
  <rect x="210" y="754" width="12" height="12" rx="2" fill="#4a8abf"/>
  <text x="227" y="764" font-size="9" fill="#374151" font-family="-apple-system, BlinkMacSystemFont, 'Segoe UI', sans-serif">Bridge / external</text>
  <rect x="320" y="754" width="12" height="12" rx="2" fill="#374151"/>
  <text x="337" y="764" font-size="9" fill="#374151" font-family="-apple-system, BlinkMacSystemFont, 'Segoe UI', sans-serif">Utility</text>
  <rect x="400" y="754" width="12" height="12" rx="2" fill="#dc2626"/>
  <text x="417" y="764" font-size="9" fill="#374151" font-family="-apple-system, BlinkMacSystemFont, 'Segoe UI', sans-serif">Sorry / incomplete</text>
  <rect x="520" y="754" width="12" height="12" rx="2" fill="#d1d5db" stroke="#6b7280" stroke-width="0.5" stroke-dasharray="3,1"/>
  <text x="537" y="764" font-size="9" fill="#374151" font-family="-apple-system, BlinkMacSystemFont, 'Segoe UI', sans-serif">Dead branch</text>
  <line x1="620" y1="760" x2="650" y2="760" stroke="#9ca3af" stroke-width="1.2"/>
  <text x="657" y="764" font-size="9" fill="#374151" font-family="-apple-system, BlinkMacSystemFont, 'Segoe UI', sans-serif">Factual edge</text>
  <line x1="740" y1="760" x2="770" y2="760" stroke="#dc2626" stroke-width="1.2" stroke-dasharray="5,3"/>
  <text x="777" y="764" font-size="9" fill="#374151" font-family="-apple-system, BlinkMacSystemFont, 'Segoe UI', sans-serif">Counterfactual edge</text>
</svg>